<svg width="64" height="12" viewBox="0 0 64 12" fill="none" xmlns="http://www.w3.org/2000/svg">
<path d="M0.828 11.592H2.508C2.64 11.592 2.736 11.496 2.736 11.364V8.484C2.964 8.724 3.324 9.06 4.188 9.06C5.4 9.06 6.528 8.256 6.528 6.12C6.528 3.984 5.4 3.18 4.188 3.18C3.252 3.18 2.904 3.516 2.652 3.828C2.496 3.432 2.088 3.24 1.632 3.24H0.828C0.696 3.24 0.6 3.336 0.6 3.468V11.364C0.6 11.496 0.696 11.592 0.828 11.592ZM3.48 7.32C3.192 7.32 2.952 7.248 2.736 7.14V5.1C2.952 4.992 3.192 4.92 3.48 4.92C4.068 4.92 4.392 5.184 4.392 6.12C4.392 7.056 4.068 7.32 3.48 7.32ZM7.62488 9H9.30488C9.43688 9 9.53288 8.904 9.53288 8.772V5.664C9.53288 5.664 9.89288 5.376 10.5049 5.376C10.8289 5.376 11.0089 5.484 11.1529 5.568C11.2609 5.64 11.3569 5.7 11.4649 5.7C11.6089 5.7 11.6929 5.592 11.6929 5.46V3.636C11.6929 3.372 11.3209 3.204 10.9849 3.204C10.2409 3.204 9.71288 3.648 9.48488 4.02C9.41288 3.456 8.95688 3.24 8.39288 3.24H7.62488C7.49288 3.24 7.39688 3.336 7.39688 3.468V8.772C7.39688 8.904 7.49288 9 7.62488 9ZM15.0999 9.12C16.7439 9.12 18.0999 8.196 18.0999 6.12C18.0999 4.044 16.7439 3.12 15.0999 3.12C13.4559 3.12 12.0999 4.044 12.0999 6.12C12.0999 8.196 13.4559 9.12 15.0999 9.12ZM15.0999 7.32C14.6079 7.32 14.2359 7.08 14.2359 6.12C14.2359 5.16 14.6079 4.92 15.0999 4.92C15.5919 4.92 15.9639 5.16 15.9639 6.12C15.9639 7.08 15.5919 7.32 15.0999 7.32ZM19.1673 11.664C20.4633 11.664 21.0993 10.908 21.0993 9.576V3.468C21.0993 3.336 21.0033 3.24 20.8713 3.24H19.1913C19.0593 3.24 18.9633 3.336 18.9633 3.468V9.756C18.9633 10.044 18.8673 10.188 18.6153 10.188C18.3633 10.188 18.2673 10.116 18.1473 10.068C18.0873 10.044 18.0273 10.032 17.9793 10.032C17.8713 10.032 17.7993 10.092 17.7993 10.212V11.1C17.7993 11.364 18.2313 11.664 19.1673 11.664ZM19.0113 1.428C19.0113 1.992 19.4673 2.448 20.0313 2.448C20.5953 2.448 21.0513 1.992 21.0513 1.428C21.0513 0.864 20.5953 0.408 20.0313 0.408C19.4673 0.408 19.0113 0.864 19.0113 1.428ZM24.8231 9.12C25.7831 9.12 26.7191 8.868 27.0911 8.496C27.1871 8.4 27.2351 8.22 27.2351 7.896V7.548C27.2351 7.332 27.1391 7.224 26.9951 7.224C26.8631 7.224 26.6591 7.32 26.3351 7.392C26.1191 7.44 25.8551 7.476 25.5311 7.476C24.5351 7.476 24.1031 7.296 24.1031 6.54H27.2591C27.3071 6.24 27.3191 5.856 27.3191 5.604C27.3191 3.816 26.2751 3.12 24.7871 3.12C22.9631 3.12 21.9671 4.368 21.9671 6.12C21.9671 7.872 22.8551 9.12 24.8231 9.12ZM24.0911 5.52C24.0911 4.752 24.3191 4.476 24.7991 4.476C25.2071 4.476 25.4591 4.68 25.4591 5.196C25.4591 5.292 25.4471 5.4 25.4351 5.52H24.0911ZM30.8605 9.12C31.7005 9.12 32.2405 8.868 32.5165 8.688C32.7925 8.508 32.8525 8.4 32.8525 8.16V7.32C32.8525 7.068 32.7925 6.924 32.6005 6.924C32.4925 6.924 32.4085 6.972 32.2405 7.056C31.9165 7.224 31.5445 7.32 31.1365 7.32C30.5365 7.32 30.0445 7.08 30.0445 6.12C30.0445 5.16 30.5365 4.92 31.1365 4.92C31.5445 4.92 31.9165 5.028 32.2405 5.184C32.4085 5.268 32.4925 5.316 32.6005 5.316C32.7925 5.316 32.8525 5.172 32.8525 4.92V4.08C32.8525 3.84 32.7925 3.732 32.5165 3.552C32.2405 3.372 31.7005 3.12 30.8605 3.12C28.9165 3.12 27.9085 4.236 27.9085 6.12C27.9085 8.004 28.9165 9.12 30.8605 9.12ZM35.5521 9.096C36.2841 9.096 36.7881 8.976 37.0881 8.676C37.1841 8.58 37.2321 8.4 37.2321 8.076V7.716C37.2321 7.452 37.0881 7.416 36.9441 7.464C36.7521 7.524 36.6321 7.56 36.4641 7.56C36.2361 7.56 36.1761 7.428 36.1761 7.188V4.56H37.0041C37.1361 4.56 37.2321 4.464 37.2321 4.332V3.468C37.2321 3.336 37.1361 3.24 37.0041 3.24H36.1761V2.076C36.1761 1.944 36.0801 1.848 35.9481 1.848H34.2681C34.1361 1.848 34.0401 1.944 34.0401 2.076V3.24H33.4881C33.3561 3.24 33.2601 3.336 33.2601 3.468V4.332C33.2601 4.464 33.3561 4.56 33.4881 4.56H34.0401V7.752C34.0401 8.652 34.6881 9.096 35.5521 9.096Z" fill="#999999"/>
<path d="M42.4443 2.388H41.4843C41.3403 2.388 41.2443 2.448 41.2083 2.592L40.7043 4.824C40.6323 5.148 40.5723 5.556 40.5723 5.676C40.5723 5.784 40.5723 5.82 40.5243 5.82C40.4763 5.82 40.4763 5.784 40.4763 5.676C40.4763 5.556 40.4163 5.172 40.3563 4.824L39.8043 1.512C39.7803 1.356 39.6723 1.308 39.5283 1.308H37.9323C37.8123 1.308 37.7163 1.404 37.7163 1.524C37.7163 1.68 37.7643 1.848 37.7883 2.004L39.0843 8.784C39.1083 8.928 39.1923 9 39.3243 9H41.0403C41.1723 9 41.2563 8.928 41.2803 8.784L41.7243 6.528C41.7963 6.156 41.9163 5.388 41.9163 5.268C41.9163 5.16 41.9163 5.124 41.9643 5.124C42.0123 5.124 42.0123 5.16 42.0123 5.268C42.0123 5.388 42.1323 6.156 42.2043 6.528L42.6483 8.784C42.6723 8.928 42.7563 9 42.8883 9H44.6043C44.7363 9 44.8203 8.928 44.8443 8.784L46.1403 2.004C46.1643 1.848 46.2123 1.68 46.2123 1.524C46.2123 1.404 46.1163 1.308 45.9963 1.308H44.4003C44.2563 1.308 44.1483 1.356 44.1243 1.512L43.5723 4.824C43.5243 5.148 43.4523 5.556 43.4523 5.676C43.4523 5.784 43.4523 5.82 43.4043 5.82C43.3563 5.82 43.3563 5.784 43.3563 5.676C43.3563 5.556 43.2963 5.148 43.2243 4.824L42.7203 2.592C42.6843 2.448 42.5883 2.388 42.4443 2.388ZM48.0186 7.968H50.1546L50.3826 8.796C50.4186 8.928 50.5146 9 50.6586 9H52.2426C52.3626 9 52.4586 8.904 52.4586 8.784C52.4586 8.676 52.4226 8.568 52.3386 8.304L50.1666 1.524C50.1066 1.356 50.0346 1.308 49.9026 1.308H48.2706C48.1386 1.308 48.0666 1.356 48.0066 1.524L45.8346 8.304C45.7506 8.568 45.7146 8.676 45.7146 8.784C45.7146 8.904 45.8106 9 45.9306 9H47.5146C47.6586 9 47.7546 8.94 47.7906 8.796L48.0186 7.968ZM49.6986 6.348H48.4746L48.6666 5.664C48.7386 5.424 49.0146 4.344 49.0146 4.224C49.0146 4.116 49.0386 4.08 49.0866 4.08C49.1346 4.08 49.1586 4.116 49.1586 4.224C49.1586 4.344 49.4346 5.424 49.5066 5.664L49.6986 6.348ZM53.6645 9H55.3445C55.4765 9 55.5725 8.904 55.5725 8.772V3.18H57.1205C57.2525 3.18 57.3485 3.084 57.3485 2.952V1.536C57.3485 1.404 57.2525 1.308 57.1205 1.308H51.8885C51.7565 1.308 51.6605 1.404 51.6605 1.536V2.952C51.6605 3.084 51.7565 3.18 51.8885 3.18H53.4365V8.772C53.4365 8.904 53.5325 9 53.6645 9ZM59.7113 9H61.3913C61.5233 9 61.6193 8.904 61.6193 8.772V3.18H63.1673C63.2993 3.18 63.3953 3.084 63.3953 2.952V1.536C63.3953 1.404 63.2993 1.308 63.1673 1.308H57.9353C57.8033 1.308 57.7073 1.404 57.7073 1.536V2.952C57.7073 3.084 57.8033 3.18 57.9353 3.18H59.4833V8.772C59.4833 8.904 59.5793 9 59.7113 9Z" fill="#643472"/>
</svg>
